<svg width="28" height="30" viewBox="0 0 28 30" fill="none" xmlns="http://www.w3.org/2000/svg">
<g filter="url(#filter0_d_278_405)">
<path fill-rule="evenodd" clip-rule="evenodd" d="M23.2959 20.8165L22.2351 16.8602C22.1743 16.6385 22.2047 16.3994 22.309 16.1907C23.2351 14.3342 23.5438 12.117 22.9742 9.80402C22.2003 6.67374 19.757 4.16081 16.6354 3.33042C15.7833 3.10869 14.9442 3 14.1312 3C8.29665 3 3.74035 8.47365 5.31418 14.5647C6.04458 17.3819 9.05314 20.2992 11.8834 20.9861C12.6486 21.173 13.4008 21.26 14.1312 21.26C15.7006 21.26 17.1701 20.8557 18.4614 20.1601C18.6049 20.0818 18.7657 20.0383 18.9222 20.0383C19.0005 20.0383 19.0787 20.047 19.157 20.0688L23.009 21.0991C23.0307 21.1035 23.0525 21.1078 23.0699 21.1078C23.2177 21.1078 23.3351 20.9687 23.2959 20.8165ZM21.0178 17.1863L21.6178 19.4253L19.4831 18.8558C19.3005 18.8079 19.1135 18.7819 18.9222 18.7819C18.557 18.7819 18.1875 18.8775 17.8571 19.0558C16.6963 19.6818 15.4441 19.9992 14.1312 19.9992C13.4834 19.9992 12.8269 19.9166 12.1791 19.7601C9.78354 19.1775 7.14453 16.6037 6.53586 14.2473C5.90111 11.7865 6.40109 9.26057 7.90536 7.31719C9.40964 5.3738 11.6791 4.26081 14.1312 4.26081C14.8529 4.26081 15.5876 4.35646 16.3137 4.5521C18.9961 5.26511 21.0786 7.39544 21.7525 10.1084C22.2264 12.0213 22.0308 13.9299 21.183 15.6298C20.9395 16.1168 20.8787 16.6689 21.0178 17.1863Z" fill="black" stroke="black" stroke-width="0.7"/>
</g>
<defs>
<filter id="filter0_d_278_405" x="-2" y="0" width="32" height="32" filterUnits="userSpaceOnUse" color-interpolation-filters="sRGB">
<feFlood flood-opacity="0" result="BackgroundImageFix"/>
<feColorMatrix in="SourceAlpha" type="matrix" values="0 0 0 0 0 0 0 0 0 0 0 0 0 0 0 0 0 0 127 0" result="hardAlpha"/>
<feOffset dy="4"/>
<feGaussianBlur stdDeviation="2"/>
<feComposite in2="hardAlpha" operator="out"/>
<feColorMatrix type="matrix" values="0 0 0 0 0 0 0 0 0 0 0 0 0 0 0 0 0 0 0.25 0"/>
<feBlend mode="normal" in2="BackgroundImageFix" result="effect1_dropShadow_278_405"/>
<feBlend mode="normal" in="SourceGraphic" in2="effect1_dropShadow_278_405" result="shape"/>
</filter>
</defs>
</svg>
